<?xml version="1.0" standalone="no"?>
<!DOCTYPE svg PUBLIC "-//W3C//DTD SVG 20010904//EN"
 "http://www.w3.org/TR/2001/REC-SVG-20010904/DTD/svg10.dtd">
<svg version="1.0" xmlns="http://www.w3.org/2000/svg"
 width="700.000000pt" height="700.000000pt" viewBox="0 0 700.000000 700.000000"
 preserveAspectRatio="xMidYMid meet">
<metadata>
Created by potrace 1.11, written by Peter Selinger 2001-2013
</metadata>
<g transform="translate(0.000000,700.000000) scale(0.100000,-0.100000)"
fill="#000000" stroke="none">
<path d="M3870 6503 c-36 -31 -67 -59 -70 -62 -3 -3 -34 -30 -70 -60 -36 -30
-69 -59 -75 -65 -5 -6 -39 -36 -75 -66 -36 -30 -67 -57 -70 -60 -3 -3 -39 -35
-80 -70 -41 -36 -79 -70 -85 -76 -5 -5 -44 -39 -85 -75 -41 -35 -77 -66 -80
-69 -3 -3 -39 -34 -80 -69 -41 -36 -79 -70 -85 -75 -5 -6 -39 -36 -75 -66 -36
-30 -69 -60 -75 -66 -5 -5 -44 -39 -85 -75 -41 -35 -77 -66 -80 -69 -3 -3 -39
-34 -80 -70 -41 -36 -77 -67 -80 -70 -3 -3 -39 -34 -80 -70 -41 -36 -77 -67
-80 -70 -3 -3 -54 -48 -115 -100 -60 -52 -112 -97 -115 -100 -3 -3 -61 -55
-130 -115 -69 -60 -127 -111 -130 -114 -3 -3 -54 -49 -115 -101 -97 -84 -152
-132 -189 -165 -6 -5 -45 -39 -86 -75 -41 -35 -82 -71 -91 -80 -9 -8 -29 -26
-45 -40 -128 -110 -261 -225 -269 -234 -5 -6 -41 -38 -80 -71 -38 -33 -72 -62
-75 -65 -3 -3 -115 -102 -250 -219 -135 -118 -246 -217 -248 -220 -1 -4 25
-38 59 -76 34 -39 71 -81 83 -95 66 -78 201 -236 206 -240 3 -3 55 -63 115
-135 60 -71 112 -132 115 -135 3 -3 59 -68 125 -145 66 -77 122 -142 125 -145
3 -3 55 -63 115 -135 60 -71 112 -132 115 -135 3 -3 32 -36 64 -75 33 -38 65
-74 71 -80 6 -5 18 -20 27 -33 8 -12 33 -42 54 -65 22 -23 87 -99 146 -169 59
-69 113 -132 120 -140 8 -7 49 -56 93 -108 44 -52 94 -110 111 -130 18 -19 91
-105 164 -190 72 -85 141 -166 153 -180 12 -14 89 -104 172 -200 82 -96 155
-181 162 -188 6 -7 29 -34 50 -59 21 -26 49 -59 63 -74 14 -15 45 -51 69 -79
l45 -52 24 28 c13 16 34 40 46 54 11 14 64 77 115 140 52 63 97 117 101 120 3
3 48 57 100 120 110 133 131 159 145 174 6 6 42 49 80 96 38 47 77 94 87 105
17 20 426 512 457 550 77 95 107 131 111 135 3 3 39 45 80 95 41 49 85 101 96
115 12 14 125 149 250 300 126 151 236 284 246 295 195 232 239 287 234 292
-3 3 -395 6 -871 6 l-865 0 6 46 c3 25 7 57 9 71 2 14 7 50 10 80 3 30 8 66
10 80 2 14 6 50 10 80 4 30 8 66 10 80 4 24 14 109 20 160 4 41 16 133 20 160
2 14 7 50 10 80 3 30 7 66 10 80 2 14 7 50 10 80 3 30 8 66 10 80 2 14 7 50
10 80 4 30 8 66 10 80 16 111 14 97 59 460 19 151 37 302 41 335 4 33 8 67 10
75 4 15 72 550 100 793 9 71 18 143 20 160 12 77 54 432 51 434 -1 1 -31 -23
-66 -54z"/>
</g>
</svg>
