<svg class="polygon" xmlns="http://www.w3.org/2000/svg" viewBox="0 0 32 32" width="24" height="24">
  <title>Letter G Polygon</title>
  <desc>A low-poly polygon in the shape of a G</desc>
  <style>
    @media (max-width: 1015px) {
      .large {
        display: none;
      }
    }

    @media (max-width: 759px) {
      .small {
        display: none;
      }
    }
  </style>
  <g class="polygon__shapes">
    <polygon class="polygon__shape" fill="#9cccec" points="18,2 2,16 10,18"/>
    <polygon class="polygon__shape" fill="#4d85a9" points="18,2 10,18 16,18"/>
    <polygon class="polygon__shape" fill="#dfeff9" points="14,30 10,18 24,18"/>
    <polygon class="polygon__shape" fill="#a6b6c1" points="2,16 14,30 10,18"/>
    <polygon class="polygon__shape small" fill="#b1d5ed" points="2,16 10,18 14,10"/>
    <polygon class="polygon__shape small" fill="#b1c2cd" points="2,16 10,18 13,27"/>
    <polygon class="polygon__shape large cutout" fill="white" points="16.1,18 10,18 16.9,12"/>
    <polygon class="polygon__shape small" fill="#5895bb" points="16,18 10,18 13,12"/>
    <polygon class="polygon__shape small" fill="#d5e4f1" points="14,30 13,27 19,24"/>
    <polygon class="polygon__shape small" fill="#517e9a" points="18,2 17.38,7 14,10"/>
    <polygon class="polygon__shape small" fill="#c4dbed" points="10,18 13,27 19,24"/>
  </g>
</svg>
