<svg class="polygon" xmlns="http://www.w3.org/2000/svg" viewBox="0 0 32 32" width="24" height="24">
  <title>Letter G Polygon</title>
  <desc>A low-poly polygon in the shape of a G</desc>
  <style>
    @media (max-width: 759px) {
      .small {
        display: none;
      }
    }

    @media (min-width: 760px) {
      .tiny-only {
        display: none;
      }
    }
  </style>
  <!-- <path class="polygon__shape" fill="#9cccec" d="M2 16l16-14-8 16h14l-10 12-12-14z"/> -->
  <g class="polygon__shapes">
    <path class="polygon__shape" fill="#9cccec" d="M18 2l-16 14 8 2 8-16z"/>
    <path class="polygon__shape" fill="#dfeff9" d="M14 30l-4-12h14l-10 12z"/>
    <path class="polygon__shape" fill="#99abb6" d="M2 16l12 14-4-12-8-2z"/>
    <path class="polygon__shape small" fill="#a8bbc7" d="M2 16l8 2 3 9-11-11z"/>
    <path class="polygon__shape tiny-only" fill="#4d85a9" d="M18 2l-8 16h6l2-16z"/>
    <path class="polygon__shape small" fill="#4d85a9" d="M16.747 12.024l-6.747 5.976 8-16-1.253 10.024z"/>
    <path class="polygon__shape small" fill="#b1d5ed" d="M2 16l8 2 4-8-12 6z"/>
    <path class="polygon__shape small" fill="#5895bb" d="M16 18h-6l3-6 3 6z"/>
    <path class="polygon__shape small" fill="#d5e4f1" d="M14 30l-1-3 6-3-5 6z"/>
    <path class="polygon__shape small" fill="#517e9a" d="M18 2l-.744 6.012-3.256 1.988 4-8z"/>
    <path class="polygon__shape small" fill="#c4dbed" d="M10 18l3 9 6-3-9-6z"/>
  </g>
</svg>
